<svg xmlns="http://www.w3.org/2000/svg" viewBox="0 0 165.42 28">
  <defs>
    <style>
      .a {
        fill: #fff;
      }
    </style>
  </defs>
  <title>logo</title>
  <g>
    <g>
      <path class="a"
            d="M9.32,11.42.84,7.53A.59.59,0,0,0,0,8.25a72.68,72.68,0,0,0,3.5,9.23.59.59,0,0,0,1.1-.1,7.32,7.32,0,0,1,4.63-4.86A.59.59,0,0,0,9.32,11.42Z"
            transform="translate(0 -3.93)"/>
      <path class="a"
            d="M29.45,20.37A20.06,20.06,0,0,0,34.92,7.13,1.13,1.13,0,0,0,33.37,6L17.15,12.52a1.06,1.06,0,0,0-.33,1.75,7.3,7.3,0,0,1-7.62,12,16.37,16.37,0,0,0,12.7,5.64c5.39-.21,9.81-2.72,13.3-7.41a1.31,1.31,0,0,0-.54-2Z"
            transform="translate(0 -3.93)"/>
      <path class="a"
            d="M4.12,22.68,3.24,25a.53.53,0,0,0,.53.72l2.39-.18a.53.53,0,0,0,.35-.9,7.32,7.32,0,0,1-1.44-2A.53.53,0,0,0,4.12,22.68Z"
            transform="translate(0 -3.93)"/>
    </g>
    <g>
      <path class="a"
            d="M53.53,30.52H46.28v-25h6.6c3.72,0,5,.25,6.57,1.23a5.52,5.52,0,0,1,2.81,4.91A5.42,5.42,0,0,1,58,17.13c4.15,1,5.3,3.83,5.3,6.32C63.28,28.39,59.85,30.52,53.53,30.52ZM55.88,9.23a6.82,6.82,0,0,0-2.35-.29H50.32v6.82h3.54c1.52,0,2.27-.11,3.07-.94a3.72,3.72,0,0,0,1-2.49A3.24,3.24,0,0,0,55.88,9.23Zm.47,10.18A7.5,7.5,0,0,0,54,19.19H50.39v7.9h3.75c3.18,0,4.55-1.8,4.55-4A3.65,3.65,0,0,0,56.35,19.41Z"
            transform="translate(0 -3.93)"/>
      <path class="a" d="M68.5,9.56a2.59,2.59,0,0,1-2.56-2.63A2.62,2.62,0,1,1,68.5,9.56Zm-2,21v-18l4-.72V30.52Z"
            transform="translate(0 -3.93)"/>
      <path class="a"
            d="M84.09,15.73A3,3,0,0,0,83,15.48a3.6,3.6,0,0,0-3.43,2.71V30.52h-4V17.64a14.54,14.54,0,0,0-.65-4.91l3.65-.94a6.42,6.42,0,0,1,.69,2.89c1.44-2,2.89-2.92,4.66-2.92a3,3,0,0,1,1.41.29Z"
            transform="translate(0 -3.93)"/>
      <path class="a"
            d="M98.13,30.52a4.49,4.49,0,0,1-.32-1.41,6,6,0,0,1-4.47,1.8c-4.66,0-7.47-3.64-7.47-9.35s3.18-9.64,7.58-9.64a5.16,5.16,0,0,1,3.93,1.66s-.11-1.41-.11-3V3.93l3.93.61V24.17c0,3.61.22,5.45.58,6.35Zm-.87-13.93a4.33,4.33,0,0,0-3.32-1.48c-2.53,0-3.68,2-3.68,6.42,0,4,.79,6.06,3.79,6.06a3.79,3.79,0,0,0,3.21-1.73Z"
            transform="translate(0 -3.93)"/>
      <path class="a"
            d="M115.91,30.92a9.81,9.81,0,0,1-7.9-3.61,13.68,13.68,0,0,1-2.85-8.91,15.78,15.78,0,0,1,1.66-7.58A10.33,10.33,0,0,1,116,5.08,10,10,0,0,1,122.23,7l-1.91,2.74a6.93,6.93,0,0,0-4.26-1.41,5.57,5.57,0,0,0-5,3,13.18,13.18,0,0,0-1.3,6.57,14.31,14.31,0,0,0,1,6.21,5.82,5.82,0,0,0,5.56,3.54,6.62,6.62,0,0,0,4.48-1.59l1.95,2.63A10.81,10.81,0,0,1,115.91,30.92Z"
            transform="translate(0 -3.93)"/>
      <path class="a"
            d="M137.56,31.28a4.28,4.28,0,0,1-2.49-2.45,6.2,6.2,0,0,1-5,2.24c-4.19,0-6.06-2.31-6.06-5.49,0-4.22,3.18-6.35,9-6.35h1.23v-1c0-2.09-.36-3.21-2.53-3.21-2.63,0-5.45,2.09-5.45,2.09l-1.77-2.85a13.7,13.7,0,0,1,7.76-2.49c2.85,0,4.76,1,5.56,3,.32.79.32,1.77.29,4.48L138,24.53c0,2.45.18,3.25,1.59,4.22Zm-4.11-9.38c-4,0-5.16,1.16-5.16,3.46,0,1.73.94,2.81,2.53,2.81a4.13,4.13,0,0,0,3.28-1.91l.07-4.33S133.74,21.9,133.45,21.9Z"
            transform="translate(0 -3.93)"/>
      <path class="a"
            d="M161.52,30.52V17.89c0-2.13-.47-2.74-1.88-2.74s-2.6.9-3.86,2.09V30.52H152V18c0-2.13-.47-2.81-2-2.81a5.81,5.81,0,0,0-3.75,1.8V30.52h-3.86V17.42a11.55,11.55,0,0,0-.65-4.62l3.61-1a5,5,0,0,1,.65,2.35,6.88,6.88,0,0,1,4.84-2.31c1.62,0,3,.54,4.37,2.67a7.5,7.5,0,0,1,5.45-2.67c3,0,4.76,1.55,4.76,5.34V30.52Z"
            transform="translate(0 -3.93)"/>
    </g>
    <circle class="a" cx="11.68" cy="15.54" r="4.96"/>
  </g>
</svg>
